<svg width="19" height="20" viewBox="0 0 19 20" fill="none" xmlns="http://www.w3.org/2000/svg">
<g id="Group">
<path id="Vector" d="M15.8871 5.92619C15.7342 6.07908 15.7342 6.32697 15.8871 6.47986L16.846 7.43876H11.5922C11.0737 7.43876 10.5862 7.64068 10.2195 8.00736C9.85285 8.374 9.6509 8.8615 9.6509 9.38005V10.4649C9.6509 10.6811 9.82617 10.8564 10.0424 10.8564C10.2586 10.8564 10.4339 10.6811 10.4339 10.4649V9.38005C10.4339 8.74138 10.9535 8.22181 11.5922 8.22181H16.846L15.8871 9.18072C15.7342 9.33361 15.7342 9.5815 15.8871 9.73439C15.9636 9.81083 16.0637 9.84908 16.1639 9.84908C16.2641 9.84908 16.3643 9.81083 16.4408 9.73439L18.068 8.10712C18.2209 7.95423 18.2209 7.70634 18.068 7.55345L16.4408 5.92623C16.2879 5.7733 16.04 5.7733 15.8871 5.92619Z" fill="#7C7A78"/>
<path id="Vector_2" d="M18.1086 13.2124C17.8625 12.6306 17.5102 12.1081 17.0616 11.6595C16.613 11.2109 16.0906 10.8587 15.5088 10.6126C14.9061 10.3577 14.2663 10.2285 13.6068 10.2285C12.9474 10.2285 12.3075 10.3577 11.7049 10.6126C11.1231 10.8587 10.6006 11.2109 10.152 11.6595C9.70344 12.1081 9.35121 12.6305 9.10512 13.2124C8.85024 13.815 8.72102 14.4549 8.72102 15.1143C8.72102 15.7738 8.85024 16.4136 9.10512 17.0163C9.35121 17.5981 9.70344 18.1205 10.152 18.5691C10.6006 19.0177 11.1231 19.37 11.7049 19.6161C12.3075 19.8709 12.9474 20.0002 13.6068 20.0002C14.2663 20.0002 14.9061 19.8709 15.5088 19.6161C16.0906 19.37 16.613 19.0177 17.0616 18.5691C17.5102 18.1205 17.8625 17.5981 18.1086 17.0163C18.3634 16.4136 18.4927 15.7738 18.4927 15.1143C18.4927 14.4549 18.3634 13.815 18.1086 13.2124ZM13.6069 19.2171C11.3446 19.2171 9.5041 17.3766 9.5041 15.1143C9.5041 12.852 11.3446 11.0115 13.6069 11.0115C15.8691 11.0115 17.7096 12.852 17.7096 15.1143C17.7096 17.3766 15.8691 19.2171 13.6069 19.2171Z" fill="#7C7A78"/>
<path id="Vector_3" d="M15.7765 14.7226H13.9984V11.8596C13.9984 11.6434 13.8231 11.4681 13.6068 11.4681C13.3906 11.4681 13.2153 11.6433 13.2153 11.8596V15.1141C13.2153 15.3303 13.3906 15.5056 13.6068 15.5056H15.7765C15.9927 15.5056 16.168 15.3303 16.168 15.1141C16.168 14.8978 15.9927 14.7226 15.7765 14.7226ZM3.22347 5.73396C3.00726 5.73396 2.83195 5.90924 2.83195 6.12549V6.43545C2.83195 7.07861 3.35519 7.60182 3.99832 7.60182H4.22672V7.98517C4.22672 8.20139 4.40199 8.3767 4.61824 8.3767C4.83445 8.3767 5.00976 8.20142 5.00976 7.98517V7.60182H5.23816C5.88133 7.60182 6.40457 7.07857 6.40457 6.43545V5.81557C6.40457 5.17244 5.88133 4.6492 5.23816 4.6492H3.99836C3.78699 4.6492 3.615 4.47721 3.615 4.26584V3.64588C3.615 3.43451 3.78699 3.26252 3.99836 3.26252H5.23816C5.44957 3.26252 5.62152 3.43451 5.62152 3.64588V3.95584C5.62152 4.17205 5.7968 4.34736 6.01305 4.34736C6.2293 4.34736 6.40457 4.17209 6.40457 3.95584V3.64588C6.40457 3.00271 5.88133 2.47951 5.23816 2.47951H5.00976V2.09611C5.00976 1.8799 4.83449 1.70459 4.61824 1.70459C4.40203 1.70459 4.22672 1.87986 4.22672 2.09611V2.47951H3.99832C3.35519 2.47951 2.83195 3.00275 2.83195 3.64588V4.26576C2.83195 4.90893 3.35519 5.43217 3.99832 5.43217H5.23812C5.44953 5.43217 5.62148 5.60416 5.62148 5.81553V6.43541C5.62148 6.64678 5.44949 6.81877 5.23812 6.81877H3.99832C3.78695 6.81877 3.61496 6.64678 3.61496 6.43541V6.12545C3.615 5.90924 3.43972 5.73396 3.22347 5.73396Z" fill="#7C7A78"/>
<path id="Vector_4" d="M10.0424 19.217H1.51875C1.4582 19.2169 1.40014 19.1928 1.35733 19.15C1.31451 19.1072 1.29042 19.0491 1.29035 18.9886V2.09625C1.29035 1.37215 1.87945 0.783008 2.60359 0.783008H13.6775C13.3781 1.15414 13.2154 1.61266 13.2154 2.09625V6.59055C13.2154 6.80676 13.3906 6.98207 13.6069 6.98207C13.8231 6.98207 13.9984 6.8068 13.9984 6.59055V5.12234H16.7064C17.0932 5.12234 17.4079 4.80766 17.4079 4.4209V2.09625C17.4079 1.53633 17.1898 1.00992 16.7939 0.613984C16.3979 0.218047 15.8715 0 15.3116 0H2.60359C2.04367 0 1.51727 0.218047 1.12133 0.613984C0.72539 1.00988 0.507343 1.53633 0.507343 2.09625V18.9886C0.507343 19.5463 0.961054 20 1.51875 20H10.0424C10.2586 20 10.4339 19.8247 10.4339 19.6085C10.4339 19.3922 10.2586 19.217 10.0424 19.217ZM16.6248 2.09625V4.33934H13.9984V2.09625C13.9984 1.37215 14.5875 0.783047 15.3116 0.783008H15.3116C16.0357 0.783008 16.6248 1.37211 16.6248 2.09625Z" fill="#7C7A78"/>
<path id="Vector_5" d="M7.56281 4.3475H11.9021C12.1183 4.3475 12.2936 4.17223 12.2936 3.95598C12.2936 3.73977 12.1184 3.56445 11.9021 3.56445H7.56281C7.3466 3.56445 7.17129 3.73973 7.17129 3.95598C7.17129 4.17223 7.3466 4.3475 7.56281 4.3475ZM12.2936 6.43559C12.2936 6.21938 12.1184 6.04406 11.9021 6.04406H7.56281C7.3466 6.04406 7.17129 6.21934 7.17129 6.43559C7.17129 6.6518 7.34656 6.82711 7.56281 6.82711H11.9021C12.1184 6.82711 12.2936 6.65184 12.2936 6.43559ZM8.33769 8.98863H2.91355C2.69734 8.98863 2.52203 9.16391 2.52203 9.38016C2.52203 9.59641 2.6973 9.77168 2.91355 9.77168H8.33769C8.5539 9.77168 8.72922 9.59641 8.72922 9.38016C8.72922 9.16391 8.5539 8.98863 8.33769 8.98863ZM8.72918 11.8598C8.72918 11.6436 8.55391 11.4682 8.33766 11.4682H2.91355C2.69734 11.4682 2.52203 11.6435 2.52203 11.8598C2.52203 12.076 2.6973 12.2513 2.91355 12.2513H8.33769C8.5539 12.2513 8.72918 12.076 8.72918 11.8598ZM7.56281 13.9479H2.91352C2.6973 13.9479 2.52199 14.1231 2.52199 14.3394C2.52199 14.5556 2.69727 14.7309 2.91352 14.7309H7.56277C7.77898 14.7309 7.9543 14.5556 7.9543 14.3394C7.9543 14.1231 7.77902 13.9479 7.56281 13.9479ZM2.91352 16.4275C2.6973 16.4275 2.52199 16.6027 2.52199 16.819C2.52199 17.0352 2.69727 17.2105 2.91352 17.2105H7.56277C7.77898 17.2105 7.9543 17.0352 7.9543 16.819C7.9543 16.6027 7.77902 16.4275 7.56277 16.4275H2.91352Z" fill="#7C7A78"/>
</g>
</svg>
